<?xml version="1.0" standalone="no"?><!DOCTYPE svg PUBLIC "-//W3C//DTD SVG 1.1//EN" "http://www.w3.org/Graphics/SVG/1.1/DTD/svg11.dtd"><svg t="1699018480971" class="icon" viewBox="0 0 1024 1024" version="1.1" xmlns="http://www.w3.org/2000/svg" p-id="1617" xmlns:xlink="http://www.w3.org/1999/xlink" width="200" height="200"><path d="M849.92 51.2H174.08c-67.8656 0-122.88 55.0144-122.88 122.88v675.84c0 67.8656 55.0144 122.88 122.88 122.88h675.84c67.8656 0 122.88-55.0144 122.88-122.88V174.08c0-67.8656-55.0144-122.88-122.88-122.88z m-337.92 701.76768a363.2896 363.2896 0 0 1-100.27008-14.03904 30.99136 30.99136 0 0 0-9.03168-1.35168c-5.89824 0-11.25376 1.80224-16.31232 4.73088l-67.25632 38.81984c-1.87392 1.08032-3.6864 1.89952-5.9136 1.89952a10.24 10.24 0 0 1-10.24512-10.24c0-2.52928 1.01376-5.05856 1.65888-7.48032l13.84448-51.64032c0.5888-2.16064 1.0752-4.2496 1.0752-6.51776a20.48512 20.48512 0 0 0-8.59648-16.6912C246.18496 643.53792 204.8 574.11072 204.8 496.96256c0-141.38368 137.53344-256 307.2-256 103.68 0 195.30752 42.8544 250.9312 108.41088l-310.35904 138.1376a30.4896 30.4896 0 0 1-27.28448-3.1232l-65.99168-46.98112a10.24 10.24 0 0 0-16.36864 8.21248c0 1.46432 0.37376 2.9696 0.97792 4.31104l55.92576 122.71104 1.34144 2.94912a20.44928 20.44928 0 0 0 27.07968 8.2688l2.24256-1.30048 353.71008-204.21632C806.51264 413.81376 819.2 454.14912 819.2 496.96256c0 141.3888-137.53856 256.00512-307.2 256.00512z" fill="#24B340" p-id="1618"></path></svg>